<svg xmlns="http://www.w3.org/2000/svg" viewBox="0 0 1309.95 496.59"><defs><style>.cls-1{fill:#d04ed6;}.cls-2{fill:#934ef9;}.cls-3{fill:#202020;}</style></defs><g id="Camada_2" data-name="Camada 2"><g id="Logo"><g id="A"><rect class="cls-1" x="413.56" y="72.64" width="244.13" height="63.96" rx="12" transform="translate(82.9 409.39) rotate(-45)"/><rect class="cls-2" x="540.65" y="72.3" width="245.09" height="63.96" rx="12" transform="translate(267.98 -438.41) rotate(45)"/><path class="cls-3" d="M0,496.35V305.27H34.12V496.35Z"/><path class="cls-3" d="M156.68,305.54c52.68,0,95.54,42.58,95.54,95.27a94.73,94.73,0,0,1-22.66,61.69c-1.63,1.91-3.54,3.82-5.46,5.73A93.79,93.79,0,0,1,157,496.35H61.42V305.27Zm-61.42,157h61.42a61.42,61.42,0,0,0,0-122.84H95.26Z"/><path class="cls-3" d="M464,400.81a95.54,95.54,0,1,1-95.54-95.54A95.65,95.65,0,0,1,464,400.81Zm-34.12,0a61.42,61.42,0,1,0-61.42,61.41A61.51,61.51,0,0,0,429.92,400.81Z"/><path class="cls-3" d="M641.46,331.71l-61.41,47.23-61.42-47.23-34.12-26.2V496.59h34.12V374.84l33.58,25.66.7.55,27.14,21,27.14-21,.7-.55,33.57-25.66V496.59h34.13V305.51Z"/><path class="cls-3" d="M894,305.27v95.54a95.54,95.54,0,0,1-191.08,0V305.27H737v95.54a61.42,61.42,0,0,0,122.84,0V305.27Z"/><path class="cls-3" d="M1067.83,358.22v-1.09a17.59,17.59,0,0,0-17.47-17.47H972.84a17.6,17.6,0,0,0-17.47,17.47v1.09a17.59,17.59,0,0,0,17.47,17.47h68.79a59.94,59.94,0,0,1,44.49,19.66c.82.82,1.37,1.63,2.19,2.45a60.33,60.33,0,0,1-46.68,98.55H981.85A60.35,60.35,0,0,1,921.52,436h34.12a26.21,26.21,0,0,0,26.21,26.2h59.78a26.21,26.21,0,1,0,0-52.41H972.84a51.06,51.06,0,0,1-35.76-14.46,48.44,48.44,0,0,1-6.55-8.19,50.75,50.75,0,0,1-9-29.21v-1.09a51.49,51.49,0,0,1,51.32-51.59h77.52a51.73,51.73,0,0,1,51.6,51.59V358Z"/><path class="cls-3" d="M1275.83,358.22v-1.09a17.59,17.59,0,0,0-17.47-17.47h-77.52a17.6,17.6,0,0,0-17.47,17.47v1.09a17.59,17.59,0,0,0,17.47,17.47h68.79a59.94,59.94,0,0,1,44.49,19.66c.82.82,1.37,1.63,2.19,2.45a60.34,60.34,0,0,1-46.68,98.55h-59.78A60.35,60.35,0,0,1,1129.52,436h34.12a26.21,26.21,0,0,0,26.21,26.2h59.78a26.21,26.21,0,1,0,0-52.41h-68.79a51.06,51.06,0,0,1-35.76-14.46,48,48,0,0,1-6.55-8.19,50.75,50.75,0,0,1-9-29.21v-1.09a51.49,51.49,0,0,1,51.32-51.59h77.52A51.72,51.72,0,0,1,1310,356.86V358Z"/><rect class="cls-2" x="655.04" y="5.34" width="48" height="119" rx="15.32"/></g></g></g></svg>